/* XPM */
static char *a079994ef0674493f704cabd949c4085XxCKqadIGEmC6jQq[] = {
/* columns rows colors chars-per-pixel */
"128 128 3 1 ",
"  c black",
". c green",
"X c white",
/* pixels */
"................................................................................................................................",
"................................................................................................................................",
"................................................................................................................................",
"................................................................................................................................",
"................................................................................................................................",
"................................................................................................................................",
"................................................................................................................................",
"................................................................................................................................",
"................................................................................................................................",
"................................................................................................................................",
"................................................................................................................................",
"................................................................................................................................",
"................................................................................................................................",
"................................................................................................................................",
"................................................................................................................................",
"................................................................................................................................",
"................................................................................................................................",
"................................................................................................................................",
"................................................................................................................................",
"................................................................................................................................",
"................................................................................................................................",
"................................................................................................................................",
"...                                      ....         ...................          ....                                      ...",
"...                                      ....         ...................          ....                                      ...",
"...                                      ....         ...................          ....                                      ...",
"...                                      ....         ...................          ....                                      ...",
"...                                      ....         ...................          ....                                      ...",
"...                                      ....         ...................          ....                                      ...",
"...                                      ....         ...................          ....                                      ...",
"...                                      ....         ...................          ....                                      ...",
"...                                      ....         ...................          ....                                      ...",
"...                                      ....         ...................          ....                                      ...",
"...         XXXXXXXXXXXXXXXXXXXXXXXXXXXXX....         ...................          ....         XXXXXXXXXXXXXX              X...",
"...         XXXXXXXXXXXXXXXXXXXXXXXXXXXXX....         ...................          ....         XXXXXXXXXXXXX              XX...",
"...         XXXXXXXXXXXXXXXXXXXXXXXXXXXXX....         ...................          ....         XXXXXXXXXXXX              XXX...",
"...         .................................         ...................          ....         ...........              XXX....",
"...         .................................         ...................          ....         ..........              XXX.....",
"...         .................................         ...................          ....         .........                    ...",
"...         .................................         ...................          ....         ........                     ...",
"...         .................................         ...................          ....         .......                      ...",
"...         .................................         ...................          ....         ......                       ...",
"...         .................................         ...................          ....         .....                        ...",
"...         .................................         ...................          ....         ....                         ...",
"...         .................................         ...................          ....         ...                          ...",
"...         .................................         ...................          ....         ..                           ...",
"...         .................................         ...................          ....         .                            ...",
"...          ................................         ...................          ....         ...XXXXXXXXXXX              X...",
"...           ...............................         ..................           ....         ..XXXXXXXXXXX              XX...",
"...            ..............................         .................            ....         .XXXXXXXXXXX              XXX...",
"...             .............................         ................             ....         ...........              XXX....",
"...              ............................         ...............              ....         ..........              XXX.....",
"...X                                     ....                                     X....         .........              XXX......",
"...XX                                    ....                                    XX....         ........              XXX.......",
"...XXX                                   ....                                   XXX....         .......              XXX........",
"....XXX                                  ....                                  XXX.....         ......              XXX.........",
".....XXX                                 ....                                 XXX......         .....              XXX..........",
"......XXX                                ....                                XXX.......         ....              XXX...........",
".......XXX                               ....                               XXX........         ...              XXX............",
"........XXX                              ....                              XXX.........         ..              XXX.............",
".........XXX                             ....                             XXX..........         .              XXX..............",
"..........XXXXXXXXXXXXXXXXXXXXXXXXXXXXXXX....XXXXXXXXXXXXXXXXXXXXXXXXXXXXXXX...........XXXXXXXXX              XXX...............",
"...........XXXXXXXXXXXXXXXXXXXXXXXXXXXXXX....XXXXXXXXXXXXXXXXXXXXXXXXXXXXXX............XXXXXXXX              XXX................",
"............XXXXXXXXXXXXXXXXXXXXXXXXXXXXX....XXXXXXXXXXXXXXXXXXXXXXXXXXXXX.............XXXXXXX              XXX.................",
".............................................................................................              XXX..................",
"...                                      ....                            ...................              XXX...................",
"...                                      ....                             .................              XXX....................",
"...                                      ....                              ...............              XXX.....................",
"...                                      ....                               .............              XXX......................",
"...                                      ....                                ...........              XXX.......................",
"...                                      ....                                 .........              XXX........................",
"...                                      ....                                  ........             XXX.........................",
"...                                      ....                                   .......            XXX..........................",
"...                                      ....                                    ......           XXX...........................",
"...                                      ....                                     .....          XXX............................",
"...XXXXXXXXXXXXXXXXXXXXXXXXXXXX          ....         XXXXXXXXXXXXXXX              ....         XXX.............................",
"...XXXXXXXXXXXXXXXXXXXXXXXXXXXX          ....         XXXXXXXXXXXXXXXX             ....        XXX..............................",
"...XXXXXXXXXXXXXXXXXXXXXXXXXXXX          ....         XXXXXXXXXXXXXXXXX            ....       XXX...............................",
"...............................          ....         ...............XXX           ....      XXX................................",
"...............................          ....         ................XXX          ....     XXX.................................",
"...                                      ....         .................XX          ....    XXX..................................",
"...                                      ....         ..................X          ....   XXX...................................",
"...                                      ....         ...................          ....  XXX....................................",
"...                                      ....         ...................          .... XXX.....................................",
"...                                      ....         ...................          ....XXX......................................",
"...                                      ....         ...................          ....XX.......................................",
"...                                      ....         ...................          ....X........................................",
"...                                      ....         ...................          .............................................",
"...                                      ....         ...................          .............................................",
"...XXXXXXXXXXXXXXXXXXXXXXXXXXXX          ....         ...................          .............................................",
"...XXXXXXXXXXXXXXXXXXXXXXXXXXXX          ....         ...................          .............................................",
"...XXXXXXXXXXXXXXXXXXXXXXXXXXXX          ....         ...................          .............................................",
"...............................          ....         ...................          .............................................",
"...............................          ....         ...................          .............................................",
"...                                      ....                                      .............................................",
"...                                      ....                                      .............................................",
"...                                      ....                                      .............................................",
"...                                      ....                                      .............................................",
"...                                      ....                                      .............................................",
"...                                      ....                                      .............................................",
"...                                      ....                                      .............................................",
"...                                      ....                                      .............................................",
"...                                      ....                                      .............................................",
"...XXXXXXXXXXXXXXXXXXXXXXXXXXXXXXXXXXXXXX....XXXXXXXXXXXXXXXXXXXXXXXXXXXXXXXXXXXXXX.............................................",
"...XXXXXXXXXXXXXXXXXXXXXXXXXXXXXXXXXXXXXX....XXXXXXXXXXXXXXXXXXXXXXXXXXXXXXXXXXXXXX.............................................",
"...XXXXXXXXXXXXXXXXXXXXXXXXXXXXXXXXXXXXXX....XXXXXXXXXXXXXXXXXXXXXXXXXXXXXXXXXXXXXX.............................................",
"................................................................................................................................",
"................................................................................................................................",
"................................................................................................................................",
"................................................................................................................................",
"................................................................................................................................",
"................................................................................................................................",
"................................................................................................................................",
"................................................................................................................................",
"................................................................................................................................",
"................................................................................................................................",
"................................................................................................................................",
"................................................................................................................................",
"................................................................................................................................",
"................................................................................................................................",
"................................................................................................................................",
"................................................................................................................................",
"................................................................................................................................",
"................................................................................................................................",
"................................................................................................................................",
"................................................................................................................................",
"................................................................................................................................",
"................................................................................................................................",
"................................................................................................................................"
};
