/* XPM */
static char * default_xpm[] = {
"128 128 4 1",
" 	c #FF00DC",
".	c #FF00DD",
"+	c #000000",
"@	c #FF00DE",
"               .++++++++++++++++.              .++++++++++++++++.              .++++++++++++++++.              .++++++++++++++++",
"               .++++++++++++++++.              .++++++++++++++++.              .++++++++++++++++.              .++++++++++++++++",
"               .++++++++++++++++.              .++++++++++++++++.              .++++++++++++++++.              .++++++++++++++++",
"               .++++++++++++++++.              .++++++++++++++++.              .++++++++++++++++.              .++++++++++++++++",
"               .++++++++++++++++.              .++++++++++++++++.              .++++++++++++++++.              .++++++++++++++++",
"               .++++++++++++++++.              .++++++++++++++++.              .++++++++++++++++.              .++++++++++++++++",
"               .++++++++++++++++.              .++++++++++++++++.              .++++++++++++++++.              .++++++++++++++++",
"               .++++++++++++++++.              .++++++++++++++++.              .++++++++++++++++.              .++++++++++++++++",
"               .++++++++++++++++.              .++++++++++++++++.              .++++++++++++++++.              .++++++++++++++++",
"               .++++++++++++++++.              .++++++++++++++++.              .++++++++++++++++.              .++++++++++++++++",
"               .++++++++++++++++.              .++++++++++++++++.              .++++++++++++++++.              .++++++++++++++++",
"               .++++++++++++++++.              .++++++++++++++++.              .++++++++++++++++.              .++++++++++++++++",
"               .++++++++++++++++.              .++++++++++++++++.              .++++++++++++++++.              .++++++++++++++++",
"               .++++++++++++++++.              .++++++++++++++++.              .++++++++++++++++.              .++++++++++++++++",
"               .++++++++++++++++.              .++++++++++++++++.              .++++++++++++++++.              .++++++++++++++++",
"...............@++++++++++++++++@..............@++++++++++++++++@..............@++++++++++++++++@..............@++++++++++++++++",
"++++++++++++++++@..............@++++++++++++++++@..............@++++++++++++++++@..............@++++++++++++++++@...............",
"++++++++++++++++.              .++++++++++++++++.              .++++++++++++++++.              .++++++++++++++++.               ",
"++++++++++++++++.              .++++++++++++++++.              .++++++++++++++++.              .++++++++++++++++.               ",
"++++++++++++++++.              .++++++++++++++++.              .++++++++++++++++.              .++++++++++++++++.               ",
"++++++++++++++++.              .++++++++++++++++.              .++++++++++++++++.              .++++++++++++++++.               ",
"++++++++++++++++.              .++++++++++++++++.              .++++++++++++++++.              .++++++++++++++++.               ",
"++++++++++++++++.              .++++++++++++++++.              .++++++++++++++++.              .++++++++++++++++.               ",
"++++++++++++++++.              .++++++++++++++++.              .++++++++++++++++.              .++++++++++++++++.               ",
"++++++++++++++++.              .++++++++++++++++.              .++++++++++++++++.              .++++++++++++++++.               ",
"++++++++++++++++.              .++++++++++++++++.              .++++++++++++++++.              .++++++++++++++++.               ",
"++++++++++++++++.              .++++++++++++++++.              .++++++++++++++++.              .++++++++++++++++.               ",
"++++++++++++++++.              .++++++++++++++++.              .++++++++++++++++.              .++++++++++++++++.               ",
"++++++++++++++++.              .++++++++++++++++.              .++++++++++++++++.              .++++++++++++++++.               ",
"++++++++++++++++.              .++++++++++++++++.              .++++++++++++++++.              .++++++++++++++++.               ",
"++++++++++++++++.              .++++++++++++++++.              .++++++++++++++++.              .++++++++++++++++.               ",
"++++++++++++++++@..............@++++++++++++++++@..............@++++++++++++++++@..............@++++++++++++++++@...............",
"...............@++++++++++++++++@..............@++++++++++++++++@..............@++++++++++++++++@..............@++++++++++++++++",
"               .++++++++++++++++.              .++++++++++++++++.              .++++++++++++++++.              .++++++++++++++++",
"               .++++++++++++++++.              .++++++++++++++++.              .++++++++++++++++.              .++++++++++++++++",
"               .++++++++++++++++.              .++++++++++++++++.              .++++++++++++++++.              .++++++++++++++++",
"               .++++++++++++++++.              .++++++++++++++++.              .++++++++++++++++.              .++++++++++++++++",
"               .++++++++++++++++.              .++++++++++++++++.              .++++++++++++++++.              .++++++++++++++++",
"               .++++++++++++++++.              .++++++++++++++++.              .++++++++++++++++.              .++++++++++++++++",
"               .++++++++++++++++.              .++++++++++++++++.              .++++++++++++++++.              .++++++++++++++++",
"               .++++++++++++++++.              .++++++++++++++++.              .++++++++++++++++.              .++++++++++++++++",
"               .++++++++++++++++.              .++++++++++++++++.              .++++++++++++++++.              .++++++++++++++++",
"               .++++++++++++++++.              .++++++++++++++++.              .++++++++++++++++.              .++++++++++++++++",
"               .++++++++++++++++.              .++++++++++++++++.              .++++++++++++++++.              .++++++++++++++++",
"               .++++++++++++++++.              .++++++++++++++++.              .++++++++++++++++.              .++++++++++++++++",
"               .++++++++++++++++.              .++++++++++++++++.              .++++++++++++++++.              .++++++++++++++++",
"               .++++++++++++++++.              .++++++++++++++++.              .++++++++++++++++.              .++++++++++++++++",
"...............@++++++++++++++++@..............@++++++++++++++++@..............@++++++++++++++++@..............@++++++++++++++++",
"++++++++++++++++@..............@++++++++++++++++@..............@++++++++++++++++@..............@++++++++++++++++@...............",
"++++++++++++++++.              .++++++++++++++++.              .++++++++++++++++.              .++++++++++++++++.               ",
"++++++++++++++++.              .++++++++++++++++.              .++++++++++++++++.              .++++++++++++++++.               ",
"++++++++++++++++.              .++++++++++++++++.              .++++++++++++++++.              .++++++++++++++++.               ",
"++++++++++++++++.              .++++++++++++++++.              .++++++++++++++++.              .++++++++++++++++.               ",
"++++++++++++++++.              .++++++++++++++++.              .++++++++++++++++.              .++++++++++++++++.               ",
"++++++++++++++++.              .++++++++++++++++.              .++++++++++++++++.              .++++++++++++++++.               ",
"++++++++++++++++.              .++++++++++++++++.              .++++++++++++++++.              .++++++++++++++++.               ",
"++++++++++++++++.              .++++++++++++++++.              .++++++++++++++++.              .++++++++++++++++.               ",
"++++++++++++++++.              .++++++++++++++++.              .++++++++++++++++.              .++++++++++++++++.               ",
"++++++++++++++++.              .++++++++++++++++.              .++++++++++++++++.              .++++++++++++++++.               ",
"++++++++++++++++.              .++++++++++++++++.              .++++++++++++++++.              .++++++++++++++++.               ",
"++++++++++++++++.              .++++++++++++++++.              .++++++++++++++++.              .++++++++++++++++.               ",
"++++++++++++++++.              .++++++++++++++++.              .++++++++++++++++.              .++++++++++++++++.               ",
"++++++++++++++++.              .++++++++++++++++.              .++++++++++++++++.              .++++++++++++++++.               ",
"++++++++++++++++@..............@++++++++++++++++@..............@++++++++++++++++@..............@++++++++++++++++@...............",
"...............@++++++++++++++++@..............@++++++++++++++++@..............@++++++++++++++++@..............@++++++++++++++++",
"               .++++++++++++++++.              .++++++++++++++++.              .++++++++++++++++.              .++++++++++++++++",
"               .++++++++++++++++.              .++++++++++++++++.              .++++++++++++++++.              .++++++++++++++++",
"               .++++++++++++++++.              .++++++++++++++++.              .++++++++++++++++.              .++++++++++++++++",
"               .++++++++++++++++.              .++++++++++++++++.              .++++++++++++++++.              .++++++++++++++++",
"               .++++++++++++++++.              .++++++++++++++++.              .++++++++++++++++.              .++++++++++++++++",
"               .++++++++++++++++.              .++++++++++++++++.              .++++++++++++++++.              .++++++++++++++++",
"               .++++++++++++++++.              .++++++++++++++++.              .++++++++++++++++.              .++++++++++++++++",
"               .++++++++++++++++.              .++++++++++++++++.              .++++++++++++++++.              .++++++++++++++++",
"               .++++++++++++++++.              .++++++++++++++++.              .++++++++++++++++.              .++++++++++++++++",
"               .++++++++++++++++.              .++++++++++++++++.              .++++++++++++++++.              .++++++++++++++++",
"               .++++++++++++++++.              .++++++++++++++++.              .++++++++++++++++.              .++++++++++++++++",
"               .++++++++++++++++.              .++++++++++++++++.              .++++++++++++++++.              .++++++++++++++++",
"               .++++++++++++++++.              .++++++++++++++++.              .++++++++++++++++.              .++++++++++++++++",
"               .++++++++++++++++.              .++++++++++++++++.              .++++++++++++++++.              .++++++++++++++++",
"...............@++++++++++++++++@..............@++++++++++++++++@..............@++++++++++++++++@..............@++++++++++++++++",
"++++++++++++++++@..............@++++++++++++++++@..............@++++++++++++++++@..............@++++++++++++++++@...............",
"++++++++++++++++.              .++++++++++++++++.              .++++++++++++++++.              .++++++++++++++++.               ",
"++++++++++++++++.              .++++++++++++++++.              .++++++++++++++++.              .++++++++++++++++.               ",
"++++++++++++++++.              .++++++++++++++++.              .++++++++++++++++.              .++++++++++++++++.               ",
"++++++++++++++++.              .++++++++++++++++.              .++++++++++++++++.              .++++++++++++++++.               ",
"++++++++++++++++.              .++++++++++++++++.              .++++++++++++++++.              .++++++++++++++++.               ",
"++++++++++++++++.              .++++++++++++++++.              .++++++++++++++++.              .++++++++++++++++.               ",
"++++++++++++++++.              .++++++++++++++++.              .++++++++++++++++.              .++++++++++++++++.               ",
"++++++++++++++++.              .++++++++++++++++.              .++++++++++++++++.              .++++++++++++++++.               ",
"++++++++++++++++.              .++++++++++++++++.              .++++++++++++++++.              .++++++++++++++++.               ",
"++++++++++++++++.              .++++++++++++++++.              .++++++++++++++++.              .++++++++++++++++.               ",
"++++++++++++++++.              .++++++++++++++++.              .++++++++++++++++.              .++++++++++++++++.               ",
"++++++++++++++++.              .++++++++++++++++.              .++++++++++++++++.              .++++++++++++++++.               ",
"++++++++++++++++.              .++++++++++++++++.              .++++++++++++++++.              .++++++++++++++++.               ",
"++++++++++++++++.              .++++++++++++++++.              .++++++++++++++++.              .++++++++++++++++.               ",
"++++++++++++++++@..............@++++++++++++++++@..............@++++++++++++++++@..............@++++++++++++++++@...............",
"...............@++++++++++++++++@..............@++++++++++++++++@..............@++++++++++++++++@..............@++++++++++++++++",
"               .++++++++++++++++.              .++++++++++++++++.              .++++++++++++++++.              .++++++++++++++++",
"               .++++++++++++++++.              .++++++++++++++++.              .++++++++++++++++.              .++++++++++++++++",
"               .++++++++++++++++.              .++++++++++++++++.              .++++++++++++++++.              .++++++++++++++++",
"               .++++++++++++++++.              .++++++++++++++++.              .++++++++++++++++.              .++++++++++++++++",
"               .++++++++++++++++.              .++++++++++++++++.              .++++++++++++++++.              .++++++++++++++++",
"               .++++++++++++++++.              .++++++++++++++++.              .++++++++++++++++.              .++++++++++++++++",
"               .++++++++++++++++.              .++++++++++++++++.              .++++++++++++++++.              .++++++++++++++++",
"               .++++++++++++++++.              .++++++++++++++++.              .++++++++++++++++.              .++++++++++++++++",
"               .++++++++++++++++.              .++++++++++++++++.              .++++++++++++++++.              .++++++++++++++++",
"               .++++++++++++++++.              .++++++++++++++++.              .++++++++++++++++.              .++++++++++++++++",
"               .++++++++++++++++.              .++++++++++++++++.              .++++++++++++++++.              .++++++++++++++++",
"               .++++++++++++++++.              .++++++++++++++++.              .++++++++++++++++.              .++++++++++++++++",
"               .++++++++++++++++.              .++++++++++++++++.              .++++++++++++++++.              .++++++++++++++++",
"               .++++++++++++++++.              .++++++++++++++++.              .++++++++++++++++.              .++++++++++++++++",
"...............@++++++++++++++++@..............@++++++++++++++++@..............@++++++++++++++++@..............@++++++++++++++++",
"++++++++++++++++@..............@++++++++++++++++@..............@++++++++++++++++@..............@++++++++++++++++@...............",
"++++++++++++++++.              .++++++++++++++++.              .++++++++++++++++.              .++++++++++++++++.               ",
"++++++++++++++++.              .++++++++++++++++.              .++++++++++++++++.              .++++++++++++++++.               ",
"++++++++++++++++.              .++++++++++++++++.              .++++++++++++++++.              .++++++++++++++++.               ",
"++++++++++++++++.              .++++++++++++++++.              .++++++++++++++++.              .++++++++++++++++.               ",
"++++++++++++++++.              .++++++++++++++++.              .++++++++++++++++.              .++++++++++++++++.               ",
"++++++++++++++++.              .++++++++++++++++.              .++++++++++++++++.              .++++++++++++++++.               ",
"++++++++++++++++.              .++++++++++++++++.              .++++++++++++++++.              .++++++++++++++++.               ",
"++++++++++++++++.              .++++++++++++++++.              .++++++++++++++++.              .++++++++++++++++.               ",
"++++++++++++++++.              .++++++++++++++++.              .++++++++++++++++.              .++++++++++++++++.               ",
"++++++++++++++++.              .++++++++++++++++.              .++++++++++++++++.              .++++++++++++++++.               ",
"++++++++++++++++.              .++++++++++++++++.              .++++++++++++++++.              .++++++++++++++++.               ",
"++++++++++++++++.              .++++++++++++++++.              .++++++++++++++++.              .++++++++++++++++.               ",
"++++++++++++++++.              .++++++++++++++++.              .++++++++++++++++.              .++++++++++++++++.               ",
"++++++++++++++++.              .++++++++++++++++.              .++++++++++++++++.              .++++++++++++++++.               ",
"++++++++++++++++.              .++++++++++++++++.              .++++++++++++++++.              .++++++++++++++++.               "};
